<svg width="544" height="510" viewBox="0 0 544 510" fill="none" xmlns="http://www.w3.org/2000/svg">
<g clip-path="url(#clip0_6_898)" filter="url(#filter0_d_6_898)">
<path d="M324.063 444.125H495.125C496.561 444.296 498.018 444.139 499.385 443.665C500.752 443.192 501.993 442.414 503.016 441.391C504.039 440.368 504.817 439.127 505.29 437.76C505.764 436.393 505.921 434.936 505.75 433.5C505.909 432.002 505.533 430.497 504.688 429.25L419.688 283.688C417.997 281.468 415.568 279.927 412.84 279.342C410.112 278.758 407.264 279.168 404.813 280.5L401.625 283.688L315.563 428.187C314.301 430.478 313.928 433.154 314.516 435.703C315.104 438.252 316.612 440.494 318.75 442L324.063 444.125Z" fill="#020617"/>
<path d="M351.688 327.25L396.313 251.813C397.363 250.24 397.924 248.391 397.924 246.5C397.924 244.609 397.363 242.76 396.313 241.188L283.688 49.9375C283.037 48.7715 282.149 47.7547 281.081 46.9527C280.013 46.1507 278.789 45.5812 277.488 45.2809C276.187 44.9806 274.837 44.9562 273.526 45.2092C272.215 45.4623 270.971 45.9871 269.875 46.75C267.75 46.75 266.688 48.875 265.625 49.9375L221 125.375C219.974 127.152 219.434 129.167 219.434 131.219C219.434 133.27 219.974 135.286 221 137.063L333.625 327.25C334.276 328.416 335.164 329.433 336.232 330.235C337.299 331.037 338.523 331.606 339.824 331.907C341.126 332.207 342.475 332.231 343.787 331.978C345.098 331.725 346.341 331.2 347.438 330.438L351.688 327.25Z" fill="#020617"/>
<path d="M195.5 166.813L39.3125 428.187C38.1483 430.601 37.9394 433.366 38.7275 435.928C39.5157 438.489 41.2427 440.658 43.5625 442L48.875 444.125H275.188C276.957 444.113 278.689 443.61 280.189 442.672C281.69 441.734 282.901 440.398 283.688 438.812L326.188 368.688C327.238 367.115 327.799 365.266 327.799 363.375C327.799 361.484 327.238 359.635 326.188 358.063L213.563 166.813C211.872 164.593 209.443 163.052 206.715 162.467C203.987 161.883 201.139 162.293 198.688 163.625L195.5 166.813Z" fill="#020617"/>
</g>
<defs>
<filter id="filter0_d_6_898" x="-21" y="-13" width="586" height="586" filterUnits="userSpaceOnUse" color-interpolation-filters="sRGB">
<feFlood flood-opacity="0" result="BackgroundImageFix"/>
<feColorMatrix in="SourceAlpha" type="matrix" values="0 0 0 0 0 0 0 0 0 0 0 0 0 0 0 0 0 0 127 0" result="hardAlpha"/>
<feMorphology radius="12" operator="erode" in="SourceAlpha" result="effect1_dropShadow_6_898"/>
<feOffset dy="25"/>
<feGaussianBlur stdDeviation="25"/>
<feComposite in2="hardAlpha" operator="out"/>
<feColorMatrix type="matrix" values="0 0 0 0 0 0 0 0 0 0 0 0 0 0 0 0 0 0 0.25 0"/>
<feBlend mode="normal" in2="BackgroundImageFix" result="effect1_dropShadow_6_898"/>
<feBlend mode="normal" in="SourceGraphic" in2="effect1_dropShadow_6_898" result="shape"/>
</filter>
<clipPath id="clip0_6_898">
<rect width="510" height="510" fill="white" transform="translate(17)"/>
</clipPath>
</defs>
</svg>
